<?xml version="1.0" encoding="UTF-8" standalone="no"?><svg xmlns="http://www.w3.org/2000/svg" xmlns:xlink="http://www.w3.org/1999/xlink" contentScriptType="application/ecmascript" contentStyleType="text/css" height="661px" preserveAspectRatio="none" style="width:873px;height:661px;" version="1.1" viewBox="0 0 873 661"
    width="873px" zoomAndPan="magnify"><defs><filter height="300%" id="f1f6m5x2858s4h" width="300%" x="-1" y="-1"><feGaussianBlur result="blurOut" stdDeviation="2.0"/><feColorMatrix in="blurOut" result="blurOut2" type="matrix" values="0 0 0 0 0 0 0 0 0 0 0 0 0 0 0 0 0 0 .4 0"/><feOffset dx="4.0" dy="4.0" in="blurOut2" result="blurOut3"/><feBlend in="SourceGraphic" in2="blurOut3" mode="normal"/></filter></defs><g><!--entity AOP--><rect fill="#FEFECE" filter="url(#f1f6m5x2858s4h)" height="36.4883" style="stroke: #A80036; stroke-width: 1.5;" width="49" x="340" y="18"/><rect fill="#FEFECE" height="5" style="stroke: #A80036; stroke-width: 1.5;" width="10" x="335" y="23"/><rect fill="#FEFECE" height="5" style="stroke: #A80036; stroke-width: 1.5;" width="10" x="335" y="44.4883"/><text fill="#000000" font-family="sans-serif" font-size="14" lengthAdjust="spacingAndGlyphs" textLength="29" x="350" y="41.5352">AOP</text><!--entity Spring--><rect fill="#FEFECE" filter="url(#f1f6m5x2858s4h)" height="36.4883" style="stroke: #A80036; stroke-width: 1.5;" width="65" x="106" y="126.5"/><rect fill="#FEFECE" height="5" style="stroke: #A80036; stroke-width: 1.5;" width="10" x="101" y="131.5"/><rect fill="#FEFECE" height="5" style="stroke: #A80036; stroke-width: 1.5;" width="10" x="101" y="152.9883"/><text fill="#000000" font-family="sans-serif" font-size="14" lengthAdjust="spacingAndGlyphs" textLength="45" x="116" y="150.0352">Spring</text><!--entity AspectJ--><rect fill="#FEFECE" filter="url(#f1f6m5x2858s4h)" height="36.4883" style="stroke: #A80036; stroke-width: 1.5;" width="70" x="556.5" y="126.5"/><rect fill="#FEFECE" height="5" style="stroke: #A80036; stroke-width: 1.5;" width="10" x="551.5" y="131.5"/><rect fill="#FEFECE" height="5" style="stroke: #A80036; stroke-width: 1.5;" width="10" x="551.5" y="152.9883"/><text fill="#000000" font-family="sans-serif" font-size="14" lengthAdjust="spacingAndGlyphs" textLength="50" x="566.5" y="150.0352">AspectJ</text><!--entity Spring AOP--><rect fill="#FEFECE" filter="url(#f1f6m5x2858s4h)" height="36.4883" style="stroke: #A80036; stroke-width: 1.5;" width="98" x="207.5" y="225"/><rect fill="#FEFECE" height="5" style="stroke: #A80036; stroke-width: 1.5;" width="10" x="202.5" y="230"/><rect fill="#FEFECE" height="5" style="stroke: #A80036; stroke-width: 1.5;" width="10" x="202.5" y="251.4883"/><text fill="#000000" font-family="sans-serif" font-size="14" lengthAdjust="spacingAndGlyphs" textLength="78" x="217.5" y="248.5352">Spring AOP</text><!--entity Spring IoC--><rect fill="#FEFECE" filter="url(#f1f6m5x2858s4h)" height="36.4883" style="stroke: #A80036; stroke-width: 1.5;" width="92" x="92.5" y="321"/><rect fill="#FEFECE" height="5" style="stroke: #A80036; stroke-width: 1.5;" width="10" x="87.5" y="326"/><rect fill="#FEFECE" height="5" style="stroke: #A80036; stroke-width: 1.5;" width="10" x="87.5" y="347.4883"/><text fill="#000000" font-family="sans-serif" font-size="14" lengthAdjust="spacingAndGlyphs" textLength="72" x="102.5" y="344.5352">Spring IoC</text><!--entity 切面描述语言--><rect fill="#FEFECE" filter="url(#f1f6m5x2858s4h)" height="36.4883" style="stroke: #A80036; stroke-width: 1.5;" width="104" x="219.5" y="321"/><rect fill="#FEFECE" height="5" style="stroke: #A80036; stroke-width: 1.5;" width="10" x="214.5" y="326"/><rect fill="#FEFECE" height="5" style="stroke: #A80036; stroke-width: 1.5;" width="10" x="214.5" y="347.4883"/><text fill="#000000" font-family="sans-serif" font-size="14" lengthAdjust="spacingAndGlyphs" textLength="84" x="229.5" y="344.5352">切面描述语言</text><!--entity AspectJ切点表达式--><rect fill="#FEFECE" filter="url(#f1f6m5x2858s4h)" height="36.4883" style="stroke: #A80036; stroke-width: 1.5;" width="140" x="377.5" y="225"/><rect fill="#FEFECE" height="5" style="stroke: #A80036; stroke-width: 1.5;" width="10" x="372.5" y="230"/><rect fill="#FEFECE" height="5" style="stroke: #A80036; stroke-width: 1.5;" width="10" x="372.5" y="251.4883"/><text fill="#000000" font-family="sans-serif" font-size="14" lengthAdjust="spacingAndGlyphs" textLength="120" x="387.5" y="248.5352">AspectJ切点表达式</text><!--entity Spring整合--><rect fill="#FEFECE" filter="url(#f1f6m5x2858s4h)" height="36.4883" style="stroke: #A80036; stroke-width: 1.5;" width="93" x="138" y="419.5"/><rect fill="#FEFECE" height="5" style="stroke: #A80036; stroke-width: 1.5;" width="10" x="133" y="424.5"/><rect fill="#FEFECE" height="5" style="stroke: #A80036; stroke-width: 1.5;" width="10" x="133" y="445.9883"/><text fill="#000000" font-family="sans-serif" font-size="14" lengthAdjust="spacingAndGlyphs" textLength="73" x="148" y="443.0352">Spring整合</text><!--entity JDK:基于接口--><rect fill="#FEFECE" filter="url(#f1f6m5x2858s4h)" height="36.4883" style="stroke: #A80036; stroke-width: 1.5;" width="103" x="6" y="518"/><rect fill="#FEFECE" height="5" style="stroke: #A80036; stroke-width: 1.5;" width="10" x="1" y="523"/><rect fill="#FEFECE" height="5" style="stroke: #A80036; stroke-width: 1.5;" width="10" x="1" y="544.4883"/><text fill="#000000" font-family="sans-serif" font-size="14" lengthAdjust="spacingAndGlyphs" textLength="83" x="16" y="541.5352">JDK:基于接口</text><!--entity Spring LTW:类加载时织入--><rect fill="#FEFECE" filter="url(#f1f6m5x2858s4h)" height="36.4883" style="stroke: #A80036; stroke-width: 1.5;" width="185" x="335" y="518"/><rect fill="#FEFECE" height="5" style="stroke: #A80036; stroke-width: 1.5;" width="10" x="330" y="523"/><rect fill="#FEFECE" height="5" style="stroke: #A80036; stroke-width: 1.5;" width="10" x="330" y="544.4883"/><text fill="#000000" font-family="sans-serif" font-size="14" lengthAdjust="spacingAndGlyphs" textLength="165" x="345" y="541.5352">Spring LTW:类加载时织入</text><!--entity CGLIB:基于继承--><rect fill="#FEFECE" filter="url(#f1f6m5x2858s4h)" height="36.4883" style="stroke: #A80036; stroke-width: 1.5;" width="119" x="144" y="518"/><rect fill="#FEFECE" height="5" style="stroke: #A80036; stroke-width: 1.5;" width="10" x="139" y="523"/><rect fill="#FEFECE" height="5" style="stroke: #A80036; stroke-width: 1.5;" width="10" x="139" y="544.4883"/><text fill="#000000" font-family="sans-serif" font-size="14" lengthAdjust="spacingAndGlyphs" textLength="99" x="154" y="541.5352">CGLIB:基于继承</text><!--entity AspectJ LTW:类加载时织入--><rect fill="#FEFECE" filter="url(#f1f6m5x2858s4h)" height="36.4883" style="stroke: #A80036; stroke-width: 1.5;" width="190" x="496.5" y="321"/><rect fill="#FEFECE" height="5" style="stroke: #A80036; stroke-width: 1.5;" width="10" x="491.5" y="326"/><rect fill="#FEFECE" height="5" style="stroke: #A80036; stroke-width: 1.5;" width="10" x="491.5" y="347.4883"/><text fill="#000000" font-family="sans-serif" font-size="14" lengthAdjust="spacingAndGlyphs" textLength="170" x="506.5" y="344.5352">AspectJ LTW:类加载时织入</text><!--entity 静态植入--><rect fill="#FEFECE" filter="url(#f1f6m5x2858s4h)" height="36.4883" style="stroke: #A80036; stroke-width: 1.5;" width="76" x="471.5" y="614"/><rect fill="#FEFECE" height="5" style="stroke: #A80036; stroke-width: 1.5;" width="10" x="466.5" y="619"/><rect fill="#FEFECE" height="5" style="stroke: #A80036; stroke-width: 1.5;" width="10" x="466.5" y="640.4883"/><text fill="#000000" font-family="sans-serif" font-size="14" lengthAdjust="spacingAndGlyphs" textLength="56" x="481.5" y="637.5352">静态植入</text><!--entity 动态代理--><rect fill="#FEFECE" filter="url(#f1f6m5x2858s4h)" height="36.4883" style="stroke: #A80036; stroke-width: 1.5;" width="76" x="92.5" y="614"/><rect fill="#FEFECE" height="5" style="stroke: #A80036; stroke-width: 1.5;" width="10" x="87.5" y="619"/><rect fill="#FEFECE" height="5" style="stroke: #A80036; stroke-width: 1.5;" width="10" x="87.5" y="640.4883"/><text fill="#000000" font-family="sans-serif" font-size="14" lengthAdjust="spacingAndGlyphs" textLength="56" x="102.5" y="637.5352">动态代理</text><polygon fill="#FBFB77" filter="url(#f1f6m5x2858s4h)" points="62.5,8,62.5,63.9316,304.5,63.9316,304.5,18,294.5,8,62.5,8" style="stroke: #A80036; stroke-width: 1.0;"/><polygon fill="#FBFB77" points="62.5,8,62.5,63.9316,304.5,63.9316,304.5,40,339.7622,36,304.5,32,304.5,18,294.5,8,62.5,8" style="stroke: #A80036; stroke-width: 1.0;"/><line style="stroke: #A80036; stroke-width: 1.0;" x1="294.5" x2="294.5" y1="8" y2="18"/><line style="stroke: #A80036; stroke-width: 1.0;" x1="304.5" x2="294.5" y1="18" y2="18"/><text fill="#000000" font-family="sans-serif" font-size="13" lengthAdjust="spacingAndGlyphs" textLength="78" x="68.5" y="25.5684">面向切面编程</text><text fill="#000000" font-family="sans-serif" font-size="13" lengthAdjust="spacingAndGlyphs" textLength="221" x="68.5" y="40.8789">剥离公共的横向业务逻辑进行统一处理</text><text fill="#000000" font-family="sans-serif" font-size="13" lengthAdjust="spacingAndGlyphs" textLength="91" x="68.5" y="56.1895">是一种编程思想</text><polygon fill="#FBFB77" filter="url(#f1f6m5x2858s4h)" points="206,124,206,164.6211,521,164.6211,521,134,511,124,206,124" style="stroke: #A80036; stroke-width: 1.0;"/><polygon fill="#FBFB77" points="206,124,206,140.5,171.0195,144.5,206,148.5,206,164.6211,521,164.6211,521,134,511,124,206,124" style="stroke: #A80036; stroke-width: 1.0;"/><line style="stroke: #A80036; stroke-width: 1.0;" x1="511" x2="511" y1="124" y2="134"/><line style="stroke: #A80036; stroke-width: 1.0;" x1="521" x2="511" y1="134" y2="134"/><text fill="#000000" font-family="sans-serif" font-size="13" lengthAdjust="spacingAndGlyphs" textLength="151" x="212" y="141.5684">提供IoC容器用于整合AOP</text><text fill="#000000" font-family="sans-serif" font-size="13" lengthAdjust="spacingAndGlyphs" textLength="294" x="212" y="156.8789">可以无缝的将Spring AOP、IoC、AspectJ整合一起</text><polygon fill="#FBFB77" filter="url(#f1f6m5x2858s4h)" points="662,124,662,164.6211,851,164.6211,851,134,841,124,662,124" style="stroke: #A80036; stroke-width: 1.0;"/><polygon fill="#FBFB77" points="662,124,662,140.5,626.627,144.5,662,148.5,662,164.6211,851,164.6211,851,134,841,124,662,124" style="stroke: #A80036; stroke-width: 1.0;"/><line style="stroke: #A80036; stroke-width: 1.0;" x1="841" x2="841" y1="124" y2="134"/><line style="stroke: #A80036; stroke-width: 1.0;" x1="851" x2="841" y1="134" y2="134"/><text fill="#000000" font-family="sans-serif" font-size="13" lengthAdjust="spacingAndGlyphs" textLength="168" x="668" y="141.5684">扩展Java语言，定义AOP语法</text><text fill="#000000" font-family="sans-serif" font-size="13" lengthAdjust="spacingAndGlyphs" textLength="143" x="668" y="156.8789">可在编译器进行代码织入</text><polygon fill="#FBFB77" filter="url(#f1f6m5x2858s4h)" points="266.5,417,266.5,457.6211,538.5,457.6211,538.5,427,528.5,417,266.5,417" style="stroke: #A80036; stroke-width: 1.0;"/><polygon fill="#FBFB77" points="266.5,417,266.5,433.5,231.3359,437.5,266.5,441.5,266.5,457.6211,538.5,457.6211,538.5,427,528.5,417,266.5,417" style="stroke: #A80036; stroke-width: 1.0;"/><line style="stroke: #A80036; stroke-width: 1.0;" x1="528.5" x2="528.5" y1="417" y2="427"/><line style="stroke: #A80036; stroke-width: 1.0;" x1="538.5" x2="528.5" y1="427" y2="427"/><text fill="#000000" font-family="sans-serif" font-size="13" lengthAdjust="spacingAndGlyphs" textLength="251" x="272.5" y="434.5684">Spring在初始化Bean时找到与之对应的切面</text><text fill="#000000" font-family="sans-serif" font-size="13" lengthAdjust="spacingAndGlyphs" textLength="125" x="272.5" y="449.8789">进行增强(生成代理类)</text><!--link AOP to Spring--><path d="M339.6278,53.6177 C334.1005,57.238 328.1905,60.8898 322.5,64 C296.1531,78.4004 221.9785,109.859 176.253,128.9063 " fill="none" id="AOP-Spring" style="stroke: #A80036; stroke-width: 1.0;"/><polygon fill="#A80036" points="171.3717,130.9375,181.2177,131.1727,175.988,129.0165,178.1442,123.7867,171.3717,130.9375" style="stroke: #A80036; stroke-width: 1.0;"/><!--link AOP to AspectJ--><path d="M389.2251,47.8179 C428.3301,66.5091 504.814,103.0664 551.7112,125.482 " fill="none" id="AOP-AspectJ" style="stroke: #A80036; stroke-width: 1.0;"/><polygon fill="#A80036" points="556.4356,127.7402,550.0406,120.25,551.9245,125.5839,546.5905,127.4678,556.4356,127.7402" style="stroke: #A80036; stroke-width: 1.0;"/><!--link Spring to Spring AOP--><path d="M160.143,162.5664 C180.0612,179.1931 209.6291,203.8748 230.7528,221.5077 " fill="none" id="Spring-Spring AOP" style="stroke: #A80036; stroke-width: 1.0;"/><polygon fill="#A80036" points="234.5946,224.7145,230.2486,215.8764,230.7561,221.5104,225.1221,222.018,234.5946,224.7145" style="stroke: #A80036; stroke-width: 1.0;"/><!--link Spring to Spring IoC--><path d="M138.5,162.7981 C138.5,198.3658 138.5,276.7618 138.5,315.8697 " fill="none" id="Spring-Spring IoC" style="stroke: #A80036; stroke-width: 1.0;"/><polygon fill="#A80036" points="138.5,320.8922,142.5,311.8922,138.5,315.8922,134.5,311.8922,138.5,320.8922" style="stroke: #A80036; stroke-width: 1.0;"/><!--link Spring AOP to 切面描述语言--><path d="M259.3214,261.0569 C261.7364,276.5126 265.2289,298.8647 267.8552,315.6731 " fill="none" id="Spring AOP-切面描述语言" style="stroke: #A80036; stroke-width: 1.0;"/><polygon fill="#A80036" points="268.6403,320.6977,271.203,311.1881,267.8684,315.7576,263.2989,312.4231,268.6403,320.6977" style="stroke: #A80036; stroke-width: 1.0;"/><!--link AspectJ to AspectJ切点表达式--><path d="M565.0882,162.5664 C540.6804,179.262 504.3987,204.0797 478.5999,221.7268 " fill="none" id="AspectJ-AspectJ切点表达式" style="stroke: #A80036; stroke-width: 1.0;"/><polygon fill="#A80036" points="474.232,224.7145,483.9187,222.9346,478.3588,221.8915,479.4019,216.3317,474.232,224.7145" style="stroke: #A80036; stroke-width: 1.0;"/><!--link AspectJ切点表达式 to 切面描述语言--><path d="M414.3957,261.0569 C384.4996,277.3638 340.5293,301.3476 309.271,318.3976 " fill="none" id="AspectJ切点表达式-切面描述语言" style="stroke: #A80036; stroke-width: 1.0;"/><polygon fill="#A80036" points="304.7545,320.8612,314.571,320.0632,309.144,318.467,310.7402,313.04,304.7545,320.8612" style="stroke: #A80036; stroke-width: 1.0;"/><!--link 切面描述语言 to Spring整合--><path d="M255.5429,357.0664 C241.0402,373.4861 219.599,397.7615 204.0676,415.3459 " fill="none" id="切面描述语言-Spring整合" style="stroke: #A80036; stroke-width: 1.0;"/><polygon fill="#A80036" points="200.6506,419.2145,209.6066,415.1169,203.9606,415.467,203.6105,409.8209,200.6506,419.2145" style="stroke: #A80036; stroke-width: 1.0;"/><!--link Spring IoC to Spring整合--><path d="M146.9371,357.0664 C154.4763,373.2101 165.5619,396.9478 173.7373,414.4537 " fill="none" id="Spring IoC-Spring整合" style="stroke: #A80036; stroke-width: 1.0;"/><polygon fill="#A80036" points="175.9606,419.2145,175.7767,409.3674,173.8449,414.6842,168.5281,412.7524,175.9606,419.2145" style="stroke: #A80036; stroke-width: 1.0;"/><!--link Spring整合 to JDK:基于接口--><path d="M161.2062,455.5664 C139.7688,472.1931 107.9457,496.8748 85.2109,514.5077 " fill="none" id="Spring整合-JDK:基于接口" style="stroke: #A80036; stroke-width: 1.0;"/><polygon fill="#A80036" points="81.0762,517.7145,90.6393,515.3592,85.0271,514.6501,85.7362,509.0378,81.0762,517.7145" style="stroke: #A80036; stroke-width: 1.0;"/><!--link Spring整合 to Spring LTW:类加载时织入--><path d="M229.0699,455.5664 C271.2413,472.6606 334.4179,498.2692 378.1058,515.9781 " fill="none" id="Spring整合-Spring LTW:类加载时织入" style="stroke: #A80036; stroke-width: 1.0;"/><polygon fill="#A80036" points="382.8018,517.8816,375.9636,510.7937,378.168,516.0033,372.9583,518.2078,382.8018,517.8816" style="stroke: #A80036; stroke-width: 1.0;"/><!--link Spring整合 to CGLIB:基于继承--><path d="M187.9849,455.5664 C191.0723,471.5721 195.5996,495.0425 198.9677,512.5035 " fill="none" id="Spring整合-CGLIB:基于继承" style="stroke: #A80036; stroke-width: 1.0;"/><polygon fill="#A80036" points="199.9729,517.7145,202.1959,508.1198,199.0259,512.805,194.3407,509.635,199.9729,517.7145" style="stroke: #A80036; stroke-width: 1.0;"/><!--link AspectJ to AspectJ LTW:类加载时织入--><path d="M591.5,162.7981 C591.5,198.3658 591.5,276.7618 591.5,315.8697 " fill="none" id="AspectJ-AspectJ LTW:类加载时织入" style="stroke: #A80036; stroke-width: 1.0;"/><polygon fill="#A80036" points="591.5,320.8922,595.5,311.8922,591.5,315.8922,587.5,311.8922,591.5,320.8922" style="stroke: #A80036; stroke-width: 1.0;"/><!--link Spring LTW:类加载时织入 to 静态植入--><path d="M442.9236,554.0569 C456.353,569.7791 475.8779,592.6375 490.3132,609.5375 " fill="none" id="Spring LTW:类加载时织入-静态植入" style="stroke: #A80036; stroke-width: 1.0;"/><polygon fill="#A80036" points="493.8668,613.6977,491.0629,604.2564,490.6194,609.8958,484.9799,609.4523,493.8668,613.6977" style="stroke: #A80036; stroke-width: 1.0;"/><!--link AspectJ LTW:类加载时织入 to 静态植入--><path d="M587.6099,357.0023 C579.4462,394.1433 559.4571,481.8344 537.5,554 C531.8183,572.6738 524.2952,593.4607 518.4779,608.8769 " fill="none" id="AspectJ LTW:类加载时织入-静态植入" style="stroke: #A80036; stroke-width: 1.0;"/><polygon fill="#A80036" points="516.5756,613.8883,523.5092,606.8936,518.35,609.2137,516.0299,604.0546,516.5756,613.8883" style="stroke: #A80036; stroke-width: 1.0;"/><!--link JDK:基于接口 to 动态代理--><path d="M71.2307,554.0569 C83.1862,569.7791 100.5681,592.6375 113.4191,609.5375 " fill="none" id="JDK:基于接口-动态代理" style="stroke: #A80036; stroke-width: 1.0;"/><polygon fill="#A80036" points="116.5826,613.6977,114.3188,604.1125,113.5561,609.7177,107.9509,608.955,116.5826,613.6977" style="stroke: #A80036; stroke-width: 1.0;"/><!--link CGLIB:基于继承 to 动态代理--><path d="M189.7693,554.0569 C177.8138,569.7791 160.4319,592.6375 147.5809,609.5375 " fill="none" id="CGLIB:基于继承-动态代理" style="stroke: #A80036; stroke-width: 1.0;"/><polygon fill="#A80036" points="144.4174,613.6977,153.0491,608.955,147.4439,609.7177,146.6812,604.1125,144.4174,613.6977" style="stroke: #A80036; stroke-width: 1.0;"/><!--
@startuml

[AOP]- ->[Spring]
[AOP]- ->[AspectJ]
[Spring]- ->[Spring AOP]
[Spring]- ->[Spring IoC]
[Spring AOP]- ->[切面描述语言]
[AspectJ]-d->[AspectJ切点表达式]
[AspectJ切点表达式]- ->[切面描述语言]
[切面描述语言]- ->[Spring整合]
[Spring IoC]- ->[Spring整合]
[Spring整合]- ->[JDK:基于接口]
[Spring整合]- ->[Spring LTW:类加载时织入]
[Spring整合]- ->[CGLIB:基于继承]
[AspectJ]- ->[AspectJ LTW:类加载时织入]
[Spring LTW:类加载时织入]- ->[静态植入]
[AspectJ LTW:类加载时织入]- ->[静态植入]
[JDK:基于接口]- ->[动态代理]
[CGLIB:基于继承]- ->[动态代理]

note left of AOP
面向切面编程
剥离公共的横向业务逻辑进行统一处理
是一种编程思想
end note

note right of Spring
提供IoC容器用于整合AOP
可以无缝的将Spring AOP、IoC、AspectJ整合一起
end note

note right of AspectJ
扩展Java语言，定义AOP语法
可在编译器进行代码织入
end note

note right of Spring整合
Spring在初始化Bean时找到与之对应的切面
进行增强(生成代理类)
end note
@enduml

PlantUML version 1.2017.16(Sun Sep 03 18:53:37 CST 2017)
(GPL source distribution)
Java Runtime: Java(TM) SE Runtime Environment
JVM: Java HotSpot(TM) 64-Bit Server VM
Java Version: 1.8.0_121-b13
Operating System: Mac OS X
OS Version: 10.13
Default Encoding: US-ASCII
Language: zh
Country: CN
--></g></svg>