<?xml version="1.0" encoding="UTF-8" standalone="no"?><svg xmlns="http://www.w3.org/2000/svg" xmlns:xlink="http://www.w3.org/1999/xlink" contentScriptType="application/ecmascript" contentStyleType="text/css" height="969px" preserveAspectRatio="none" style="width:1531px;height:969px;" version="1.1" viewBox="0 0 1531 969"
    width="1531px" zoomAndPan="magnify"><defs><filter height="300%" id="fnkpsfyjhirax" width="300%" x="-1" y="-1"><feGaussianBlur result="blurOut" stdDeviation="2.0"/><feColorMatrix in="blurOut" result="blurOut2" type="matrix" values="0 0 0 0 0 0 0 0 0 0 0 0 0 0 0 0 0 0 .4 0"/><feOffset dx="4.0" dy="4.0" in="blurOut2" result="blurOut3"/><feBlend in="SourceGraphic" in2="blurOut3" mode="normal"/></filter></defs><g><!--cluster HandlerMapping--><polygon fill="#FFFFFF" filter="url(#fnkpsfyjhirax)" points="14,16,138,16,145,38.4883,280,38.4883,280,617,14,617,14,16" style="stroke: #000000; stroke-width: 2.0;"/><line style="stroke: #000000; stroke-width: 2.0;" x1="14" x2="145" y1="38.4883" y2="38.4883"/><text fill="#000000" font-family="sans-serif" font-size="14" font-weight="bold" lengthAdjust="spacingAndGlyphs" textLength="118" x="18" y="31.5352">HandlerMapping</text><!--cluster HandlerAdapter--><polygon fill="#FFFFFF" filter="url(#fnkpsfyjhirax)" points="520,330,638,330,645,352.4883,1509,352.4883,1509,957,520,957,520,330" style="stroke: #000000; stroke-width: 2.0;"/><line style="stroke: #000000; stroke-width: 2.0;" x1="520" x2="645" y1="352.4883" y2="352.4883"/><text fill="#000000" font-family="sans-serif" font-size="14" font-weight="bold" lengthAdjust="spacingAndGlyphs" textLength="112" x="524" y="345.5352">HandlerAdapter</text><!--entity hmap--><ellipse cx="147" cy="72" fill="#FEFECE" filter="url(#fnkpsfyjhirax)" rx="8" ry="8" style="stroke: #A80036; stroke-width: 2.0;"/><text fill="#000000" font-family="sans-serif" font-size="14" lengthAdjust="spacingAndGlyphs" textLength="114" x="90" y="102.5352">HandlerMapping</text><!--entity rmhm--><rect fill="#FEFECE" filter="url(#fnkpsfyjhirax)" height="36.4883" style="stroke: #A80036; stroke-width: 1.5;" width="249" x="22.5" y="368"/><rect fill="#FEFECE" height="5" style="stroke: #A80036; stroke-width: 1.5;" width="10" x="17.5" y="373"/><rect fill="#FEFECE" height="5" style="stroke: #A80036; stroke-width: 1.5;" width="10" x="17.5" y="394.4883"/><text fill="#000000" font-family="sans-serif" font-size="14" lengthAdjust="spacingAndGlyphs" textLength="229" x="32.5" y="391.5352">RequestMappingHandlerMapping</text><!--entity hmd--><rect fill="#FEFECE" filter="url(#fnkpsfyjhirax)" height="36.4883" style="stroke: #A80036; stroke-width: 1.5;" width="126" x="84" y="573"/><rect fill="#FEFECE" height="5" style="stroke: #A80036; stroke-width: 1.5;" width="10" x="79" y="578"/><rect fill="#FEFECE" height="5" style="stroke: #A80036; stroke-width: 1.5;" width="10" x="79" y="599.4883"/><text fill="#000000" font-family="sans-serif" font-size="14" lengthAdjust="spacingAndGlyphs" textLength="106" x="94" y="596.5352">HandlerMethod</text><!--entity hand--><ellipse cx="609" cy="386" fill="#FEFECE" filter="url(#fnkpsfyjhirax)" rx="8" ry="8" style="stroke: #A80036; stroke-width: 2.0;"/><text fill="#000000" font-family="sans-serif" font-size="14" lengthAdjust="spacingAndGlyphs" textLength="109" x="554.5" y="416.5352">HandlerAdapter</text><!--entity rmha--><rect fill="#FEFECE" filter="url(#fnkpsfyjhirax)" height="36.4883" style="stroke: #A80036; stroke-width: 1.5;" width="244" x="598" y="573"/><rect fill="#FEFECE" height="5" style="stroke: #A80036; stroke-width: 1.5;" width="10" x="593" y="578"/><rect fill="#FEFECE" height="5" style="stroke: #A80036; stroke-width: 1.5;" width="10" x="593" y="599.4883"/><text fill="#000000" font-family="sans-serif" font-size="14" lengthAdjust="spacingAndGlyphs" textLength="224" x="608" y="596.5352">RequestMappingHandlerAdapter</text><!--entity hmar--><ellipse cx="1022" cy="761" fill="#FEFECE" filter="url(#fnkpsfyjhirax)" rx="8" ry="8" style="stroke: #A80036; stroke-width: 2.0;"/><text fill="#000000" font-family="sans-serif" font-size="14" lengthAdjust="spacingAndGlyphs" textLength="233" x="905.5" y="791.5352">HandlerMethodArgumentResolver</text><!--entity hmrvh--><ellipse cx="720" cy="761" fill="#FEFECE" filter="url(#fnkpsfyjhirax)" rx="8" ry="8" style="stroke: #A80036; stroke-width: 2.0;"/><text fill="#000000" font-family="sans-serif" font-size="14" lengthAdjust="spacingAndGlyphs" textLength="244" x="598" y="791.5352">HandlerMethodReturnValueHandler</text><!--entity rpmar--><rect fill="#FEFECE" filter="url(#fnkpsfyjhirax)" height="36.4883" style="stroke: #A80036; stroke-width: 1.5;" width="297" x="1203.5" y="913"/><rect fill="#FEFECE" height="5" style="stroke: #A80036; stroke-width: 1.5;" width="10" x="1198.5" y="918"/><rect fill="#FEFECE" height="5" style="stroke: #A80036; stroke-width: 1.5;" width="10" x="1198.5" y="939.4883"/><text fill="#000000" font-family="sans-serif" font-size="14" lengthAdjust="spacingAndGlyphs" textLength="277" x="1213.5" y="936.5352">RequestParamMethodArgumentResolver</text><!--entity rrbmp--><rect fill="#FEFECE" filter="url(#fnkpsfyjhirax)" height="36.4883" style="stroke: #A80036; stroke-width: 1.5;" width="293" x="875.5" y="913"/><rect fill="#FEFECE" height="5" style="stroke: #A80036; stroke-width: 1.5;" width="10" x="870.5" y="918"/><rect fill="#FEFECE" height="5" style="stroke: #A80036; stroke-width: 1.5;" width="10" x="870.5" y="939.4883"/><text fill="#000000" font-family="sans-serif" font-size="14" lengthAdjust="spacingAndGlyphs" textLength="273" x="885.5" y="936.5352">RequestResponseBodyMethodProcessor</text><!--entity mavmrvh--><rect fill="#FEFECE" filter="url(#fnkpsfyjhirax)" height="36.4883" style="stroke: #A80036; stroke-width: 1.5;" width="312" x="528" y="913"/><rect fill="#FEFECE" height="5" style="stroke: #A80036; stroke-width: 1.5;" width="10" x="523" y="918"/><rect fill="#FEFECE" height="5" style="stroke: #A80036; stroke-width: 1.5;" width="10" x="523" y="939.4883"/><text fill="#000000" font-family="sans-serif" font-size="14" lengthAdjust="spacingAndGlyphs" textLength="292" x="538" y="936.5352">ModelAndViewMethodReturnValueHandler</text><polygon fill="#FBFB77" filter="url(#fnkpsfyjhirax)" points="288,59.5,288,84.8105,910,84.8105,910,69.5,900,59.5,288,59.5" style="stroke: #A80036; stroke-width: 1.0;"/><line style="stroke: #A80036; stroke-width: 1.0;" x1="900" x2="900" y1="59.5" y2="69.5"/><line style="stroke: #A80036; stroke-width: 1.0;" x1="910" x2="900" y1="69.5" y2="69.5"/><text fill="#000000" font-family="sans-serif" font-size="13" lengthAdjust="spacingAndGlyphs" textLength="601" x="294" y="77.0684">参考链接:http://fangjian0423.github.io/2017/07/28/springmvc-process-write-by-processon/</text><!--entity dis--><rect fill="#FEFECE" filter="url(#fnkpsfyjhirax)" height="36.4883" style="stroke: #A80036; stroke-width: 1.5;" width="139" x="466.5" y="231.5"/><rect fill="#FEFECE" height="5" style="stroke: #A80036; stroke-width: 1.5;" width="10" x="461.5" y="236.5"/><rect fill="#FEFECE" height="5" style="stroke: #A80036; stroke-width: 1.5;" width="10" x="461.5" y="257.9883"/><text fill="#000000" font-family="sans-serif" font-size="14" lengthAdjust="spacingAndGlyphs" textLength="119" x="476.5" y="255.0352">DispatcherServlet</text><!--entity man--><ellipse cx="369" cy="218" fill="#FEFECE" filter="url(#fnkpsfyjhirax)" rx="8" ry="8" style="stroke: #A80036; stroke-width: 2.0;"/><path d="M369,226 L369,253 M356,234 L382,234 M369,253 L356,268 M369,253 L382,268 " fill="#FEFECE" filter="url(#fnkpsfyjhirax)" style="stroke: #A80036; stroke-width: 2.0;"/><text fill="#000000" font-family="sans-serif" font-size="14" lengthAdjust="spacingAndGlyphs" textLength="30" x="354" y="288.5352">man</text><!--entity ViewResolver--><rect fill="#FEFECE" filter="url(#fnkpsfyjhirax)" height="36.4883" style="stroke: #A80036; stroke-width: 1.5;" width="110" x="402" y="368"/><rect fill="#FEFECE" height="5" style="stroke: #A80036; stroke-width: 1.5;" width="10" x="397" y="373"/><rect fill="#FEFECE" height="5" style="stroke: #A80036; stroke-width: 1.5;" width="10" x="397" y="394.4883"/><text fill="#000000" font-family="sans-serif" font-size="14" lengthAdjust="spacingAndGlyphs" textLength="90" x="412" y="391.5352">ViewResolver</text><!--entity View--><rect fill="#FEFECE" filter="url(#fnkpsfyjhirax)" height="36.4883" style="stroke: #A80036; stroke-width: 1.5;" width="52" x="343" y="476"/><rect fill="#FEFECE" height="5" style="stroke: #A80036; stroke-width: 1.5;" width="10" x="338" y="481"/><rect fill="#FEFECE" height="5" style="stroke: #A80036; stroke-width: 1.5;" width="10" x="338" y="502.4883"/><text fill="#000000" font-family="sans-serif" font-size="14" lengthAdjust="spacingAndGlyphs" textLength="32" x="353" y="499.5352">View</text><!--link hmap to rmhm--><path d="M147,101.2104 C147,165.1437 147,315.9108 147,367.958 " fill="none" id="hmap-rmhm" style="stroke: #A80036; stroke-width: 1.0; stroke-dasharray: 7.0,7.0;"/><polygon fill="none" points="140.0001,101.0588,147,81.0588,154.0001,101.0587,140.0001,101.0588" style="stroke: #A80036; stroke-width: 1.0;"/><!--link rmhm to hmd--><path d="M147,404.1924 C147,441.4991 147,526.6143 147,567.8107 " fill="none" id="rmhm-hmd" style="stroke: #A80036; stroke-width: 1.0;"/><polygon fill="#A80036" points="147,572.8484,151,563.8484,147,567.8484,143,563.8484,147,572.8484" style="stroke: #A80036; stroke-width: 1.0;"/><!--link hand to rmha--><path d="M623.5062,412.7908 C646.4287,455.125 690.4367,536.4011 710.0931,572.7034 " fill="none" id="hand-rmha" style="stroke: #A80036; stroke-width: 1.0; stroke-dasharray: 7.0,7.0;"/><polygon fill="none" points="617.2801,415.9935,613.9128,395.0731,629.5913,409.3274,617.2801,415.9935" style="stroke: #A80036; stroke-width: 1.0;"/><!--link rmha to hmar--><path d="M752.0334,609.032 C817.211,645.7214 962.9219,727.7441 1008.2635,753.2676 " fill="none" id="rmha-hmar" style="stroke: #A80036; stroke-width: 1.0;"/><polygon fill="#A80036" points="1012.8114,755.8276,1006.9308,747.9271,1008.4543,753.3749,1003.0065,754.8984,1012.8114,755.8276" style="stroke: #A80036; stroke-width: 1.0;"/><!--link rmha to hmrvh--><path d="M720,609.193 C720,643.2214 720,715.8397 720,746.675 " fill="none" id="rmha-hmrvh" style="stroke: #A80036; stroke-width: 1.0;"/><polygon fill="#A80036" points="720,751.9277,724,742.9277,720,746.9277,716,742.9277,720,751.9277" style="stroke: #A80036; stroke-width: 1.0;"/><!--link hmar to rpmar--><path d="M1049.0595,774.9397 C1108.567,805.5951 1250.7586,878.8454 1316.9686,912.9535 " fill="none" id="hmar-rpmar" style="stroke: #A80036; stroke-width: 1.0; stroke-dasharray: 7.0,7.0;"/><polygon fill="none" points="1045.7443,781.1062,1031.1705,765.7242,1052.1557,768.6606,1045.7443,781.1062" style="stroke: #A80036; stroke-width: 1.0;"/><!--link hmar to rrbmp--><path d="M1022,790.2252 C1022,825.4244 1022,883.4696 1022,912.8121 " fill="none" id="hmar-rrbmp" style="stroke: #A80036; stroke-width: 1.0; stroke-dasharray: 7.0,7.0;"/><polygon fill="none" points="1015.0001,790.14,1022,770.1399,1029.0001,790.1399,1015.0001,790.14" style="stroke: #A80036; stroke-width: 1.0;"/><!--link hmrvh to rrbmp--><path d="M746.7797,776.0746 C802.3707,807.3676 930.085,879.2598 989.9415,912.9538 " fill="none" id="hmrvh-rrbmp" style="stroke: #A80036; stroke-width: 1.0; stroke-dasharray: 7.0,7.0;"/><polygon fill="none" points="743.0329,781.9985,729.0383,766.0878,749.9005,769.7986,743.0329,781.9985" style="stroke: #A80036; stroke-width: 1.0;"/><!--link hmrvh to mavmrvh--><path d="M713.9183,789.7191 C706.4755,824.8656 694.0951,883.3285 687.8516,912.8121 " fill="none" id="hmrvh-mavmrvh" style="stroke: #A80036; stroke-width: 1.0; stroke-dasharray: 7.0,7.0;"/><polygon fill="none" points="707.0729,788.2558,718.0645,770.1399,720.7691,791.1563,707.0729,788.2558" style="stroke: #A80036; stroke-width: 1.0;"/><!--link man to dis--><path d="M384.1147,249.5 C401.7233,249.5 432.1146,249.5 461.107,249.5 " fill="none" id="man-dis" style="stroke: #A80036; stroke-width: 1.0;"/><polygon fill="#A80036" points="466.1219,249.5,457.1219,245.5,461.1219,249.5,457.1219,253.5,466.1219,249.5" style="stroke: #A80036; stroke-width: 1.0;"/><text fill="#000000" font-family="sans-serif" font-size="13" lengthAdjust="spacingAndGlyphs" textLength="26" x="412.25" y="243.0684">请求</text><!--link dis to ViewResolver--><path d="M524.8624,267.6143 C516.0735,282.005 503.5745,302.6853 493,321 C484.9,335.029 476.0841,350.9353 469.2037,363.5014 " fill="none" id="dis-ViewResolver" style="stroke: #A80036; stroke-width: 1.0;"/><polygon fill="#A80036" points="466.7613,367.9702,474.5877,361.9912,469.1593,363.5828,467.5678,358.1544,466.7613,367.9702" style="stroke: #A80036; stroke-width: 1.0;"/><!--link ViewResolver to View--><path d="M442.072,404.3207 C426.8729,422.9741 403.2967,451.9087 387.0561,471.8402 " fill="none" id="ViewResolver-View" style="stroke: #A80036; stroke-width: 1.0;"/><polygon fill="#A80036" points="383.7075,475.9498,392.4936,471.4995,386.8659,472.0737,386.2917,466.446,383.7075,475.9498" style="stroke: #A80036; stroke-width: 1.0;"/><!--link man to View--><path d="M369,296.4245 C369,350.9465 369,438.2236 369,475.8116 " fill="none" id="man-View" style="stroke: #A80036; stroke-width: 1.0;"/><polygon fill="#A80036" points="369,291.2532,365,300.2532,369,296.2532,373,300.2532,369,291.2532" style="stroke: #A80036; stroke-width: 1.0;"/><!--link HandlerMapping to dis--><path d="M280.208,106.0282 C280.5456,106.196 280.8829,106.3617 281.2198,106.5255 C281.8936,106.8531 282.5659,107.1727 283.2368,107.4846 C284.5786,108.1083 285.9146,108.7009 287.2449,109.2635 C292.5663,111.5139 297.7975,113.2843 302.9486,114.6472 C313.2508,117.3729 323.2326,118.4685 332.9751,118.5133 C352.4601,118.6029 370.9879,114.4896 389.2068,110.8089 C425.6447,103.4474 460.8469,97.8164 500,131 C529.6888,156.1623 535.3919,204.9809 536.1854,231.4258 " fill="none" id="HandlerMapping-dis" style="stroke: #A80036; stroke-width: 1.0;"/><polygon fill="#A80036" points="280.208,106.0282,286.488,113.6151,284.6857,108.2531,290.0478,106.4508,280.208,106.0282" style="stroke: #A80036; stroke-width: 1.0;"/><text fill="#000000" font-family="sans-serif" font-size="13" lengthAdjust="spacingAndGlyphs" textLength="155" x="528" y="159.5684">遍历HandlerMapping集合</text><!--link HandlerMapping to dis--><path d="M280.0452,195.7273 C283.7437,196.4265 287.5745,197.0499 291.5014,197.6102 C299.3551,198.7309 307.5931,199.5989 315.9265,200.3146 C349.2598,203.1772 384.1177,203.6017 402,208 C427.1698,214.1908 454.5719,222.4069 478,229.8943 " fill="none" id="HandlerMapping-dis" style="stroke: #A80036; stroke-width: 1.0;"/><polygon fill="#A80036" points="482.9367,231.48,475.5912,224.9192,478.1763,229.9509,473.1446,232.5359,482.9367,231.48" style="stroke: #A80036; stroke-width: 1.0;"/><text fill="#000000" font-family="sans-serif" font-size="13" lengthAdjust="spacingAndGlyphs" textLength="168" x="281.5" y="144.5684">找到对应的HandlerMapping</text><text fill="#000000" font-family="sans-serif" font-size="13" lengthAdjust="spacingAndGlyphs" textLength="190" x="270.5" y="159.8789">并得到HandlerExecutionChain.</text><text fill="#000000" font-family="sans-serif" font-size="13" lengthAdjust="spacingAndGlyphs" textLength="251" x="240" y="175.1895">HandlerExecutionChain内部包括了拦截器</text><!--link dis to HandlerAdapter--><path d="M579.2706,267.538 C594.274,273.8985 611.3382,282.11 627.7106,292.4334 C635.8968,297.5951 643.9101,303.2847 651.4064,309.535 C655.1545,312.6601 658.7734,315.9253 662.22,319.3348 C663.9433,321.0396 665.6235,322.7804 667.2553,324.5577 C668.0712,325.4464 668.875,326.3442 669.666,327.2512 C670.0615,327.7048 670.4538,328.1606 670.8428,328.6187 C671.0374,328.8478 671.231,329.0774 671.4239,329.3076 C671.5203,329.4227 671.6166,346.3729 671.7126,346.4883 " fill="none" id="dis-HandlerAdapter" style="stroke: #A80036; stroke-width: 1.0;"/><polygon fill="#A80036" points="671.7126,329.6534,669.0311,320.1766,668.5146,325.8098,662.8814,325.2933,671.7126,329.6534" style="stroke: #A80036; stroke-width: 1.0;"/><!--link dis to HandlerAdapter--><path d="M610.8913,267.9081 C627.9526,274.2781 645.9206,282.4685 662.6529,292.7327 C671.019,297.8647 679.0762,303.5153 686.5567,309.7159 C690.2969,312.8163 693.893,316.0541 697.3113,319.4335 C699.0205,321.1232 700.6853,322.8482 702.3015,324.6091 C703.1096,325.4896 703.9055,326.379 704.6888,327.2775 C705.0804,327.7267 705.4688,328.1782 705.8541,328.6319 C706.0467,328.8588 706.2385,329.0863 706.4295,329.3143 C706.525,329.4283 706.6203,346.374 706.7154,346.4883 " fill="none" id="dis-HandlerAdapter" style="stroke: #A80036; stroke-width: 1.0;"/><polygon fill="#A80036" points="605.8852,266.0811,612.9683,272.9243,610.5821,267.7954,615.7111,265.4092,605.8852,266.0811" style="stroke: #A80036; stroke-width: 1.0;"/><!--
@startuml

note "参考链接:http://fangjian0423.github.io/2017/07/28/springmvc-process-write-by-processon/" as n1

[DispatcherServlet] as dis
actor man

package "HandlerMapping"{
() "HandlerMapping" as hmap
[RequestMappingHandlerMapping] as rmhm
[HandlerMethod] as hmd
rmhm .u.|>hmap
rmhm-d->hmd
}

package "HandlerAdapter"{
() "HandlerAdapter" as hand
[RequestMappingHandlerAdapter] as rmha
() "HandlerMethodArgumentResolver" as hmar
() "HandlerMethodReturnValueHandler" as hmrvh
[RequestParamMethodArgumentResolver] as rpmar
[RequestResponseBodyMethodProcessor] as rrbmp
[ModelAndViewMethodReturnValueHandler] as mavmrvh
rmha .u.|>hand
rmha -d->hmar
rmha -d->hmrvh
rpmar .u.|> hmar
rrbmp .u.|> hmar
rrbmp .u.|> hmrvh
mavmrvh .u.|> hmrvh
}

man-r->dis:请求
dis-d->[ViewResolver]
[ViewResolver]-d->[View]
[View]-l->man

dis-u->HandlerMapping:遍历HandlerMapping集合
HandlerMapping-d->dis:找到对应的HandlerMapping\n并得到HandlerExecutionChain.\nHandlerExecutionChain内部包括了拦截器
dis-d->HandlerAdapter
HandlerAdapter-u->dis
@enduml

PlantUML version 1.2017.16(Sun Sep 03 18:53:37 CST 2017)
(GPL source distribution)
Java Runtime: Java(TM) SE Runtime Environment
JVM: Java HotSpot(TM) 64-Bit Server VM
Java Version: 1.8.0_121-b13
Operating System: Mac OS X
OS Version: 10.12.6
Default Encoding: US-ASCII
Language: zh
Country: CN
--></g></svg>