<?xml version="1.0" encoding="UTF-8" standalone="no"?><svg xmlns="http://www.w3.org/2000/svg" xmlns:xlink="http://www.w3.org/1999/xlink" contentScriptType="application/ecmascript" contentStyleType="text/css" height="631px" preserveAspectRatio="none" style="width:414px;height:631px;" version="1.1" viewBox="0 0 414 631"
    width="414px" zoomAndPan="magnify"><defs><filter height="300%" id="f12pr8locdy8pa" width="300%" x="-1" y="-1"><feGaussianBlur result="blurOut" stdDeviation="2.0"/><feColorMatrix in="blurOut" result="blurOut2" type="matrix" values="0 0 0 0 0 0 0 0 0 0 0 0 0 0 0 0 0 0 .4 0"/><feOffset dx="4.0" dy="4.0" in="blurOut2" result="blurOut3"/><feBlend in="SourceGraphic" in2="blurOut3" mode="normal"/></filter></defs><g><!--entity 单推业务--><rect fill="#FEFECE" filter="url(#f12pr8locdy8pa)" height="36.4883" style="stroke: #A80036; stroke-width: 1.5;" width="76" x="42.5" y="296"/><rect fill="#FEFECE" height="5" style="stroke: #A80036; stroke-width: 1.5;" width="10" x="37.5" y="301"/><rect fill="#FEFECE" height="5" style="stroke: #A80036; stroke-width: 1.5;" width="10" x="37.5" y="322.4883"/><text fill="#000000" font-family="sans-serif" font-size="14" lengthAdjust="spacingAndGlyphs" textLength="56" x="52.5" y="319.5352">单推业务</text><!--entity xpush-single--><rect fill="#FEFECE" filter="url(#f12pr8locdy8pa)" height="36.4883" style="stroke: #A80036; stroke-width: 1.5;" width="112" x="24.5" y="392"/><rect fill="#FEFECE" height="5" style="stroke: #A80036; stroke-width: 1.5;" width="10" x="19.5" y="397"/><rect fill="#FEFECE" height="5" style="stroke: #A80036; stroke-width: 1.5;" width="10" x="19.5" y="418.4883"/><text fill="#000000" font-family="sans-serif" font-size="14" lengthAdjust="spacingAndGlyphs" textLength="92" x="34.5" y="415.5352">xpush-single</text><!--entity 批量推送业务--><rect fill="#FEFECE" filter="url(#f12pr8locdy8pa)" height="36.4883" style="stroke: #A80036; stroke-width: 1.5;" width="104" x="225.5" y="8"/><rect fill="#FEFECE" height="5" style="stroke: #A80036; stroke-width: 1.5;" width="10" x="220.5" y="13"/><rect fill="#FEFECE" height="5" style="stroke: #A80036; stroke-width: 1.5;" width="10" x="220.5" y="34.4883"/><text fill="#000000" font-family="sans-serif" font-size="14" lengthAdjust="spacingAndGlyphs" textLength="84" x="235.5" y="31.5352">批量推送业务</text><!--entity xpush-backer--><rect fill="#FEFECE" filter="url(#f12pr8locdy8pa)" height="36.4883" style="stroke: #A80036; stroke-width: 1.5;" width="117" x="219" y="104"/><rect fill="#FEFECE" height="5" style="stroke: #A80036; stroke-width: 1.5;" width="10" x="214" y="109"/><rect fill="#FEFECE" height="5" style="stroke: #A80036; stroke-width: 1.5;" width="10" x="214" y="130.4883"/><text fill="#000000" font-family="sans-serif" font-size="14" lengthAdjust="spacingAndGlyphs" textLength="97" x="229" y="127.5352">xpush-backer</text><!--entity xpush-agent--><rect fill="#FEFECE" filter="url(#f12pr8locdy8pa)" height="36.4883" style="stroke: #A80036; stroke-width: 1.5;" width="110" x="222.5" y="200"/><rect fill="#FEFECE" height="5" style="stroke: #A80036; stroke-width: 1.5;" width="10" x="217.5" y="205"/><rect fill="#FEFECE" height="5" style="stroke: #A80036; stroke-width: 1.5;" width="10" x="217.5" y="226.4883"/><text fill="#000000" font-family="sans-serif" font-size="14" lengthAdjust="spacingAndGlyphs" textLength="90" x="232.5" y="223.5352">xpush-agent</text><!--entity mq--><rect fill="#FEFECE" filter="url(#f12pr8locdy8pa)" height="36.4883" style="stroke: #A80036; stroke-width: 1.5;" width="42" x="256.5" y="296"/><rect fill="#FEFECE" height="5" style="stroke: #A80036; stroke-width: 1.5;" width="10" x="251.5" y="301"/><rect fill="#FEFECE" height="5" style="stroke: #A80036; stroke-width: 1.5;" width="10" x="251.5" y="322.4883"/><text fill="#000000" font-family="sans-serif" font-size="14" lengthAdjust="spacingAndGlyphs" textLength="22" x="266.5" y="319.5352">mq</text><!--entity xpush-list--><rect fill="#FEFECE" filter="url(#f12pr8locdy8pa)" height="36.4883" style="stroke: #A80036; stroke-width: 1.5;" width="91" x="294" y="392"/><rect fill="#FEFECE" height="5" style="stroke: #A80036; stroke-width: 1.5;" width="10" x="289" y="397"/><rect fill="#FEFECE" height="5" style="stroke: #A80036; stroke-width: 1.5;" width="10" x="289" y="418.4883"/><text fill="#000000" font-family="sans-serif" font-size="14" lengthAdjust="spacingAndGlyphs" textLength="71" x="304" y="415.5352">xpush-list</text><!--entity xpush-all--><rect fill="#FEFECE" filter="url(#f12pr8locdy8pa)" height="36.4883" style="stroke: #A80036; stroke-width: 1.5;" width="87" x="172" y="392"/><rect fill="#FEFECE" height="5" style="stroke: #A80036; stroke-width: 1.5;" width="10" x="167" y="397"/><rect fill="#FEFECE" height="5" style="stroke: #A80036; stroke-width: 1.5;" width="10" x="167" y="418.4883"/><text fill="#000000" font-family="sans-serif" font-size="14" lengthAdjust="spacingAndGlyphs" textLength="67" x="182" y="415.5352">xpush-all</text><!--entity xpush-sdk--><rect fill="#FEFECE" filter="url(#f12pr8locdy8pa)" height="36.4883" style="stroke: #A80036; stroke-width: 1.5;" width="95" x="168" y="488"/><rect fill="#FEFECE" height="5" style="stroke: #A80036; stroke-width: 1.5;" width="10" x="163" y="493"/><rect fill="#FEFECE" height="5" style="stroke: #A80036; stroke-width: 1.5;" width="10" x="163" y="514.4883"/><text fill="#000000" font-family="sans-serif" font-size="14" lengthAdjust="spacingAndGlyphs" textLength="75" x="178" y="511.5352">xpush-sdk</text><!--entity apns--><rect fill="#FEFECE" filter="url(#f12pr8locdy8pa)" height="36.4883" style="stroke: #A80036; stroke-width: 1.5;" width="53" x="6" y="584"/><rect fill="#FEFECE" height="5" style="stroke: #A80036; stroke-width: 1.5;" width="10" x="1" y="589"/><rect fill="#FEFECE" height="5" style="stroke: #A80036; stroke-width: 1.5;" width="10" x="1" y="610.4883"/><text fill="#000000" font-family="sans-serif" font-size="14" lengthAdjust="spacingAndGlyphs" textLength="33" x="16" y="607.5352">apns</text><!--entity 个推--><rect fill="#FEFECE" filter="url(#f12pr8locdy8pa)" height="36.4883" style="stroke: #A80036; stroke-width: 1.5;" width="48" x="94.5" y="584"/><rect fill="#FEFECE" height="5" style="stroke: #A80036; stroke-width: 1.5;" width="10" x="89.5" y="589"/><rect fill="#FEFECE" height="5" style="stroke: #A80036; stroke-width: 1.5;" width="10" x="89.5" y="610.4883"/><text fill="#000000" font-family="sans-serif" font-size="14" lengthAdjust="spacingAndGlyphs" textLength="28" x="104.5" y="607.5352">个推</text><!--entity 华为推送--><rect fill="#FEFECE" filter="url(#f12pr8locdy8pa)" height="36.4883" style="stroke: #A80036; stroke-width: 1.5;" width="76" x="177.5" y="584"/><rect fill="#FEFECE" height="5" style="stroke: #A80036; stroke-width: 1.5;" width="10" x="172.5" y="589"/><rect fill="#FEFECE" height="5" style="stroke: #A80036; stroke-width: 1.5;" width="10" x="172.5" y="610.4883"/><text fill="#000000" font-family="sans-serif" font-size="14" lengthAdjust="spacingAndGlyphs" textLength="56" x="187.5" y="607.5352">华为推送</text><!--entity 米推--><rect fill="#FEFECE" filter="url(#f12pr8locdy8pa)" height="36.4883" style="stroke: #A80036; stroke-width: 1.5;" width="48" x="288.5" y="584"/><rect fill="#FEFECE" height="5" style="stroke: #A80036; stroke-width: 1.5;" width="10" x="283.5" y="589"/><rect fill="#FEFECE" height="5" style="stroke: #A80036; stroke-width: 1.5;" width="10" x="283.5" y="610.4883"/><text fill="#000000" font-family="sans-serif" font-size="14" lengthAdjust="spacingAndGlyphs" textLength="28" x="298.5" y="607.5352">米推</text><!--entity ...--><rect fill="#FEFECE" filter="url(#f12pr8locdy8pa)" height="36.4883" style="stroke: #A80036; stroke-width: 1.5;" width="32" x="371.5" y="584"/><rect fill="#FEFECE" height="5" style="stroke: #A80036; stroke-width: 1.5;" width="10" x="366.5" y="589"/><rect fill="#FEFECE" height="5" style="stroke: #A80036; stroke-width: 1.5;" width="10" x="366.5" y="610.4883"/><text fill="#000000" font-family="sans-serif" font-size="14" lengthAdjust="spacingAndGlyphs" textLength="12" x="381.5" y="607.5352">...</text><!--link 单推业务 to xpush-single--><path d="M80.5,332.0569 C80.5,347.5126 80.5,369.8647 80.5,386.6731 " fill="none" id="单推业务-xpush-single" style="stroke: #A80036; stroke-width: 1.0;"/><polygon fill="#A80036" points="80.5,391.6977,84.5,382.6977,80.5,386.6977,76.5,382.6977,80.5,391.6977" style="stroke: #A80036; stroke-width: 1.0;"/><!--link 批量推送业务 to xpush-backer--><path d="M277.5,44.0569 C277.5,59.5126 277.5,81.8647 277.5,98.6731 " fill="none" id="批量推送业务-xpush-backer" style="stroke: #A80036; stroke-width: 1.0;"/><polygon fill="#A80036" points="277.5,103.6977,281.5,94.6977,277.5,98.6977,273.5,94.6977,277.5,103.6977" style="stroke: #A80036; stroke-width: 1.0;"/><!--link xpush-backer to xpush-agent--><path d="M277.5,140.0569 C277.5,155.5126 277.5,177.8647 277.5,194.6731 " fill="none" id="xpush-backer-xpush-agent" style="stroke: #A80036; stroke-width: 1.0;"/><polygon fill="#A80036" points="277.5,199.6977,281.5,190.6977,277.5,194.6977,273.5,190.6977,277.5,199.6977" style="stroke: #A80036; stroke-width: 1.0;"/><!--link xpush-agent to mq--><path d="M277.5,236.0569 C277.5,251.5126 277.5,273.8647 277.5,290.6731 " fill="none" id="xpush-agent-mq" style="stroke: #A80036; stroke-width: 1.0;"/><polygon fill="#A80036" points="277.5,295.6977,281.5,286.6977,277.5,290.6977,273.5,286.6977,277.5,295.6977" style="stroke: #A80036; stroke-width: 1.0;"/><!--link mq to xpush-list--><path d="M289.1617,332.0569 C299.2296,347.6459 313.8285,370.2506 324.7146,387.1065 " fill="none" id="mq-xpush-list" style="stroke: #A80036; stroke-width: 1.0;"/><polygon fill="#A80036" points="327.6798,391.6977,326.1574,381.9672,324.9673,387.4975,319.437,386.3073,327.6798,391.6977" style="stroke: #A80036; stroke-width: 1.0;"/><!--link mq to xpush-all--><path d="M265.8383,332.0569 C255.7704,347.6459 241.1715,370.2506 230.2854,387.1065 " fill="none" id="mq-xpush-all" style="stroke: #A80036; stroke-width: 1.0;"/><polygon fill="#A80036" points="227.3202,391.6977,235.563,386.3073,230.0327,387.4975,228.8426,381.9672,227.3202,391.6977" style="stroke: #A80036; stroke-width: 1.0;"/><!--link xpush-single to xpush-sdk--><path d="M105.8925,428.0569 C128.4703,444.1122 161.5131,467.6093 185.4111,484.6035 " fill="none" id="xpush-single-xpush-sdk" style="stroke: #A80036; stroke-width: 1.0;"/><polygon fill="#A80036" points="189.7624,487.6977,184.7461,479.2221,185.6877,484.8,180.1098,485.7416,189.7624,487.6977" style="stroke: #A80036; stroke-width: 1.0;"/><!--link xpush-list to xpush-sdk--><path d="M316.1765,428.0569 C295.4384,444.1122 265.088,467.6093 243.1372,484.6035 " fill="none" id="xpush-list-xpush-sdk" style="stroke: #A80036; stroke-width: 1.0;"/><polygon fill="#A80036" points="239.1405,487.6977,248.7057,485.3512,243.0942,484.6369,243.8084,479.0253,239.1405,487.6977" style="stroke: #A80036; stroke-width: 1.0;"/><!--link xpush-all to xpush-sdk--><path d="M215.5,428.0569 C215.5,443.5126 215.5,465.8647 215.5,482.6731 " fill="none" id="xpush-all-xpush-sdk" style="stroke: #A80036; stroke-width: 1.0;"/><polygon fill="#A80036" points="215.5,487.6977,219.5,478.6977,215.5,482.6977,211.5,478.6977,215.5,487.6977" style="stroke: #A80036; stroke-width: 1.0;"/><!--link xpush-sdk to apns--><path d="M181.0791,524.0569 C147.3295,541.7616 96.3297,568.5155 63.7246,585.6199 " fill="none" id="xpush-sdk-apns" style="stroke: #A80036; stroke-width: 1.0;"/><polygon fill="#A80036" points="59.0517,588.0712,68.8798,587.4326,63.4795,585.7485,65.1636,580.3482,59.0517,588.0712" style="stroke: #A80036; stroke-width: 1.0;"/><!--link xpush-sdk to 个推--><path d="M197.255,524.0569 C181.2344,539.9124 157.8805,563.0255 140.7637,579.9658 " fill="none" id="xpush-sdk-个推" style="stroke: #A80036; stroke-width: 1.0;"/><polygon fill="#A80036" points="136.9929,583.6977,146.2035,580.2099,140.5467,580.1806,140.5761,574.5238,136.9929,583.6977" style="stroke: #A80036; stroke-width: 1.0;"/><!--link xpush-sdk to 华为推送--><path d="M215.5,524.0569 C215.5,539.5126 215.5,561.8647 215.5,578.6731 " fill="none" id="xpush-sdk-华为推送" style="stroke: #A80036; stroke-width: 1.0;"/><polygon fill="#A80036" points="215.5,583.6977,219.5,574.6977,215.5,578.6977,211.5,574.6977,215.5,583.6977" style="stroke: #A80036; stroke-width: 1.0;"/><!--link xpush-sdk to 米推--><path d="M233.745,524.0569 C249.7656,539.9124 273.1195,563.0255 290.2363,579.9658 " fill="none" id="xpush-sdk-米推" style="stroke: #A80036; stroke-width: 1.0;"/><polygon fill="#A80036" points="294.0071,583.6977,290.4239,574.5238,290.4533,580.1806,284.7965,580.2099,294.0071,583.6977" style="stroke: #A80036; stroke-width: 1.0;"/><!--link xpush-sdk to ...--><path d="M247.8519,524.0569 C282.7682,543.545 337.3287,573.9974 366.8528,590.476 " fill="none" id="xpush-sdk-..." style="stroke: #A80036; stroke-width: 1.0;"/><polygon fill="#A80036" points="371.3694,592.9969,365.4601,585.1178,367.0034,590.5601,361.5612,592.1034,371.3694,592.9969" style="stroke: #A80036; stroke-width: 1.0;"/><!--
@startuml
[单推业务]- ->[xpush-single]
[批量推送业务]- ->[xpush-backer]
[xpush-backer]- ->[xpush-agent]
[xpush-agent]- ->[mq]
[mq]- ->[xpush-list]
[mq]->[xpush-all]

[xpush-single]- ->[xpush-sdk]
[xpush-list]- ->[xpush-sdk]
[xpush-all]- ->[xpush-sdk]
[xpush-sdk]- ->[apns]
[xpush-sdk]- ->[个推]
[xpush-sdk]- ->[华为推送]
[xpush-sdk]- ->[米推]
[xpush-sdk]- ->[...]
@enduml

PlantUML version 1.2017.16(Sun Sep 03 18:53:37 CST 2017)
(GPL source distribution)
Java Runtime: Java(TM) SE Runtime Environment
JVM: Java HotSpot(TM) 64-Bit Server VM
Java Version: 1.8.0_121-b13
Operating System: Mac OS X
OS Version: 10.13.1
Default Encoding: US-ASCII
Language: zh
Country: CN
--></g></svg>